<svg width="107" height="25" viewBox="0 0 107 25" fill="none" xmlns="http://www.w3.org/2000/svg">
<path d="M6.584 1.44L11.432 1.296C11.688 1.296 11.912 1.384 12.104 1.56C12.312 1.72 12.416 1.936 12.416 2.208C12.416 2.48 12.368 2.768 12.272 3.072C12.192 3.376 12.032 3.736 11.792 4.152C11.552 4.552 11.336 4.904 11.144 5.208C10.968 5.496 10.664 5.92 10.232 6.48C9.8 7.024 9.48 7.432 9.272 7.704C9.08 7.96 8.704 8.424 8.144 9.096C7.6 9.768 7.24 10.216 7.064 10.44C5.032 12.76 3.4 14.928 2.168 16.944C3.464 17.632 4.888 18.24 6.44 18.768C8.008 19.312 9.24 19.584 10.136 19.584C11.032 19.584 11.704 19.432 12.152 19.128C12.616 18.824 12.848 18.448 12.848 18C12.848 17.28 12.408 16.84 11.528 16.68C11.208 16.632 10.928 16.512 10.688 16.32C10.464 16.112 10.352 15.848 10.352 15.528C10.352 15.192 10.472 14.928 10.712 14.736C10.952 14.528 11.24 14.424 11.576 14.424C12.232 14.424 12.824 14.696 13.352 15.24C13.896 15.768 14.168 16.464 14.168 17.328C14.168 18.448 13.72 19.4 12.824 20.184C11.928 20.968 10.824 21.36 9.512 21.36C8.2 21.36 6.664 21.008 4.904 20.304C3.16 19.6 1.824 18.872 0.896 18.12C0.432 17.752 0.2 17.344 0.2 16.896C0.2 16.592 0.336 16.224 0.608 15.792C0.896 15.344 1.128 14.992 1.304 14.736C1.496 14.464 1.784 14.088 2.168 13.608C2.552 13.128 2.872 12.736 3.128 12.432C4.232 11.072 5.04 10.072 5.552 9.432C8.048 6.36 9.504 4.264 9.92 3.144C8.16 3.064 7.048 3.024 6.584 3.024L1.736 3.168C1.48 3.168 1.248 3.088 1.04 2.928C0.848 2.752 0.752 2.52 0.752 2.232C0.752 1.944 0.848 1.72 1.04 1.56C1.248 1.384 1.48 1.296 1.736 1.296L6.584 1.44ZM18.5433 16.32L19.8873 16.44C20.0153 15.208 20.0793 12.96 20.0793 9.696C20.0793 6.416 20.0153 4.168 19.8873 2.952C19.5353 2.904 19.0473 2.88 18.4233 2.88C17.8153 2.88 17.2313 3.032 16.6713 3.336C16.1273 3.624 15.8553 4.024 15.8553 4.536C15.8553 5.368 16.1513 5.784 16.7433 5.784C16.9833 5.784 17.1753 5.864 17.3193 6.024C17.4633 6.184 17.5353 6.384 17.5353 6.624C17.5353 6.864 17.4473 7.064 17.2713 7.224C17.0953 7.368 16.8553 7.44 16.5513 7.44C15.9913 7.44 15.5113 7.208 15.1113 6.744C14.7273 6.264 14.5353 5.672 14.5353 4.968C14.5353 4.264 14.7433 3.648 15.1593 3.12C15.5913 2.576 16.1593 2.184 16.8633 1.944C18.1593 1.512 19.4473 1.296 20.7273 1.296C22.0233 1.296 22.9673 1.376 23.5593 1.536C24.1673 1.696 24.4713 2.008 24.4713 2.472C24.4713 2.744 24.3673 2.96 24.1593 3.12C23.9673 3.28 23.7433 3.36 23.4873 3.36L22.0953 3.168C21.9993 4.24 21.9513 6.416 21.9513 9.696C21.9513 12.96 22.0153 15.208 22.1433 16.44L23.4873 16.32C23.7433 16.32 23.9673 16.4 24.1593 16.56C24.3673 16.72 24.4713 16.944 24.4713 17.232C24.4713 17.52 24.3673 17.744 24.1593 17.904C23.9513 18.064 23.7113 18.144 23.4393 18.144L21.0153 17.976L18.5913 18.144C18.3193 18.144 18.0793 18.064 17.8713 17.904C17.6633 17.744 17.5593 17.52 17.5593 17.232C17.5593 16.944 17.6553 16.72 17.8473 16.56C18.0553 16.4 18.2873 16.32 18.5433 16.32ZM35.1067 1.296C36.5467 1.296 37.6747 1.704 38.4907 2.52C39.3067 3.32 39.7147 4.512 39.7147 6.096C39.7147 7.664 39.1467 9.104 38.0107 10.416C36.8747 11.728 35.4427 12.384 33.7147 12.384C32.7227 12.384 32.0827 12.256 31.7947 12C31.5867 11.792 31.4827 11.544 31.4827 11.256C31.4827 10.952 31.5787 10.72 31.7707 10.56C31.9627 10.384 32.1787 10.296 32.4187 10.296C32.6747 10.296 33.0107 10.376 33.4267 10.536C33.8587 10.696 34.2827 10.776 34.6987 10.776C35.5947 10.776 36.3707 10.416 37.0267 9.696C37.6987 8.96 38.0347 8.056 38.0347 6.984C38.0347 5.896 37.6747 4.952 36.9547 4.152C36.2507 3.352 35.3307 2.952 34.1947 2.952C33.0587 2.952 32.0027 3.256 31.0267 3.864C30.8347 8.76 30.7387 15.104 30.7387 22.896C30.7387 24.288 30.2987 24.984 29.4187 24.984C29.0827 24.984 28.7787 24.856 28.5067 24.6C28.2507 24.344 28.1227 24.016 28.1227 23.616C28.1227 23.232 28.2907 22.8 28.6267 22.32C28.9787 21.84 29.1547 21.336 29.1547 20.808C29.1547 15.64 29.1307 12.256 29.0827 10.656C29.0027 7.984 28.9627 6.304 28.9627 5.616C28.5147 6.144 28.1547 6.688 27.8827 7.248C27.6107 7.808 27.3147 8.088 26.9947 8.088C26.5627 8.088 26.3467 7.864 26.3467 7.416C26.3467 6.968 26.5947 6.416 27.0907 5.76C27.5867 5.088 28.2187 4.424 28.9867 3.768C29.7707 3.096 30.7147 2.52 31.8187 2.04C32.9387 1.544 34.0347 1.296 35.1067 1.296ZM56.9722 4.392C56.0602 3.288 55.1242 2.736 54.1642 2.736C53.4122 2.736 52.7802 2.992 52.2682 3.504C51.7562 4.016 51.5002 4.624 51.5002 5.328C51.5002 6.032 51.7002 6.616 52.1002 7.08C52.5162 7.544 53.0282 7.928 53.6362 8.232C54.2442 8.536 54.9002 8.896 55.6042 9.312C56.3082 9.712 56.9642 10.136 57.5722 10.584C58.1802 11.016 58.6842 11.616 59.0842 12.384C59.5002 13.136 59.7082 14.064 59.7082 15.168C59.7082 16.272 59.4922 17.368 59.0602 18.456C58.6282 19.544 58.0602 20.48 57.3562 21.264C56.6522 22.048 55.8442 22.72 54.9322 23.28C53.1082 24.4 51.2122 24.96 49.2442 24.96C47.9162 24.96 46.7642 24.632 45.7882 23.976C44.7962 23.32 44.3002 22.576 44.3002 21.744C44.3002 20.912 44.6922 20.496 45.4762 20.496C45.7802 20.496 46.3962 20.92 47.3242 21.768C47.6762 22.088 48.1562 22.376 48.7642 22.632C49.3882 22.904 50.0762 23.04 50.8282 23.04C51.5962 23.04 52.3962 22.896 53.2282 22.608C54.0602 22.32 54.8362 21.904 55.5562 21.36C56.2922 20.832 56.8842 20.12 57.3322 19.224C57.7802 18.344 58.0042 17.36 58.0042 16.272C58.0042 15.168 57.7162 14.232 57.1402 13.464C56.5642 12.696 55.8682 12.096 55.0522 11.664C54.2362 11.232 53.4202 10.816 52.6042 10.416C51.7882 10 51.0922 9.472 50.5162 8.832C49.9402 8.192 49.6522 7.416 49.6522 6.504C49.6522 5.576 49.8522 4.752 50.2522 4.032C50.6682 3.312 51.1882 2.768 51.8122 2.4C52.9962 1.664 54.1722 1.296 55.3402 1.296C56.5082 1.296 57.4602 1.568 58.1962 2.112C58.9322 2.656 59.3002 3.28 59.3002 3.984C59.3002 4.4 59.1962 4.72 58.9882 4.944C58.7802 5.152 58.5402 5.256 58.2682 5.256C57.9962 5.256 57.7642 5.184 57.5722 5.04C57.3962 4.88 57.1962 4.664 56.9722 4.392ZM66.3433 19.944L69.1513 20.112C69.1673 19.68 69.2153 18.912 69.2953 17.808C69.3753 16.704 69.4233 15.92 69.4393 15.456C68.7513 16.288 67.9353 16.944 66.9913 17.424C66.0633 17.904 65.1913 18.144 64.3753 18.144C63.2553 18.144 62.3513 17.744 61.6633 16.944C60.9753 16.144 60.6313 15.144 60.6313 13.944C60.6313 12.728 61.0073 11.56 61.7593 10.44C62.5113 9.304 63.3913 8.456 64.3993 7.896C65.4073 7.336 66.4233 7.056 67.4473 7.056C68.4713 7.056 69.3273 7.456 70.0153 8.256C70.7033 9.056 71.0473 9.984 71.0473 11.04L70.8553 15.192C70.8553 18.504 71.0713 20.904 71.5033 22.392C71.6473 22.888 71.7193 23.288 71.7193 23.592C71.7193 24.504 71.3673 24.96 70.6633 24.96C69.7033 24.96 69.1993 23.816 69.1513 21.528L66.3433 21.72C65.7193 21.72 65.4073 21.424 65.4073 20.832C65.4073 20.24 65.7193 19.944 66.3433 19.944ZM68.3593 15.192C69.0793 14.488 69.4393 13.624 69.4393 12.6C69.4393 11.576 69.0793 10.712 68.3593 10.008C67.6553 9.288 66.7913 8.928 65.7673 8.928C64.7593 8.928 63.9113 9.288 63.2233 10.008C62.5353 10.712 62.1913 11.576 62.1913 12.6C62.1913 13.624 62.5353 14.488 63.2233 15.192C63.9113 15.896 64.7593 16.248 65.7673 16.248C66.7913 16.248 67.6553 15.896 68.3593 15.192ZM80.2198 13.896L79.9798 8.496C79.9798 8.064 80.0838 7.72 80.2918 7.464C80.5158 7.192 80.7798 7.056 81.0838 7.056C81.3878 7.056 81.6358 7.184 81.8278 7.44C82.0198 7.68 82.1158 8.016 82.1158 8.448C82.1158 8.864 82.0678 9.456 81.9718 10.224C81.7798 11.76 81.6838 13.136 81.6838 14.352C81.6838 14.832 81.8358 15.296 82.1398 15.744C82.4598 16.176 82.6198 16.568 82.6198 16.92C82.6198 17.272 82.4998 17.568 82.2598 17.808C82.0198 18.032 81.7478 18.144 81.4438 18.144C80.6438 18.144 80.2438 17.512 80.2438 16.248C79.4918 17.512 78.5478 18.144 77.4118 18.144C76.4998 18.144 75.7718 17.816 75.2278 17.16C74.6998 16.504 74.3318 15.704 74.1238 14.76L73.2118 10.632C73.1158 10.168 72.8998 9.76 72.5638 9.408C72.2438 9.04 72.0838 8.672 72.0838 8.304C72.0838 7.936 72.2118 7.64 72.4678 7.416C72.7238 7.176 73.0278 7.056 73.3798 7.056C74.1798 7.056 74.6998 7.688 74.9398 8.952L75.8518 13.968C76.1558 15.568 76.9158 16.368 78.1318 16.368C78.7238 16.368 79.2118 16.136 79.5958 15.672C79.9798 15.192 80.1878 14.6 80.2198 13.896ZM92.9883 14.784C93.1003 15.072 93.3323 15.464 93.6843 15.96C94.0523 16.44 94.2363 16.832 94.2363 17.136C94.2363 17.44 94.1563 17.688 93.9963 17.88C93.8363 18.056 93.6203 18.144 93.3483 18.144C92.6923 18.144 92.1083 17.464 91.5963 16.104L91.4043 15.576C90.5883 17.288 89.3643 18.144 87.7323 18.144C86.9163 18.144 86.2363 17.888 85.6923 17.376C85.1643 16.848 84.9003 16.192 84.9003 15.408C84.9003 14.192 85.3163 13.144 86.1483 12.264C86.9803 11.384 88.0683 10.912 89.4123 10.848C89.0923 10.288 88.7323 9.872 88.3323 9.6C87.9483 9.312 87.5963 9.144 87.2763 9.096C86.9563 9.048 86.6523 9.024 86.3643 9.024C86.0923 9.008 85.8763 8.944 85.7163 8.832C85.5563 8.72 85.4763 8.504 85.4763 8.184C85.4763 7.848 85.6043 7.576 85.8603 7.368C86.1323 7.16 86.4523 7.056 86.8203 7.056C87.8603 7.056 88.8843 7.576 89.8923 8.616C90.9003 9.656 91.7803 11.288 92.5323 13.512L92.9883 14.784ZM88.8123 12.12C88.2363 12.12 87.7163 12.312 87.2523 12.696C86.8043 13.08 86.5803 13.576 86.5803 14.184C86.5803 14.792 86.7803 15.304 87.1803 15.72C87.5963 16.12 88.0923 16.32 88.6683 16.32C89.2443 16.32 89.7403 16.12 90.1563 15.72C90.5723 15.304 90.7803 14.816 90.7803 14.256C90.7803 13.856 90.7083 13.488 90.5643 13.152C90.4203 12.8 90.3323 12.584 90.3003 12.504C89.8843 12.248 89.3883 12.12 88.8123 12.12ZM99.0119 18.144C98.0039 18.144 97.1559 17.744 96.4679 16.944C95.7799 16.144 95.4359 15.224 95.4359 14.184C95.4359 13.128 95.6439 12.144 96.0599 11.232C96.4759 10.32 97.0039 9.568 97.6439 8.976C98.2839 8.384 98.9719 7.92 99.7079 7.584C100.46 7.232 101.228 7.056 102.012 7.056C102.812 7.056 103.548 7.352 104.22 7.944C104.204 6.744 104.148 5.432 104.052 4.008C103.956 2.568 103.908 1.664 103.908 1.296C103.908 0.927999 104.004 0.623999 104.196 0.383999C104.388 0.127999 104.636 -1.43051e-06 104.94 -1.43051e-06C105.244 -1.43051e-06 105.5 0.135999 105.708 0.407999C105.932 0.664 106.044 1.016 106.044 1.464C106.044 1.896 105.972 2.92 105.828 4.536C105.7 6.136 105.636 7.64 105.636 9.048C105.636 10.456 105.692 11.68 105.804 12.72C105.916 13.744 106.036 14.44 106.164 14.808C106.532 15.784 106.716 16.44 106.716 16.776C106.716 17.688 106.364 18.144 105.66 18.144C104.812 18.144 104.316 17.24 104.172 15.432C103.532 16.28 102.764 16.944 101.868 17.424C100.972 17.904 100.02 18.144 99.0119 18.144ZM98.0759 10.008C97.3719 10.712 97.0199 11.576 97.0199 12.6C97.0199 13.624 97.3719 14.496 98.0759 15.216C98.7959 15.92 99.6599 16.272 100.668 16.272C101.692 16.272 102.548 15.92 103.236 15.216C103.924 14.496 104.268 13.592 104.268 12.504C104.268 11.416 103.956 10.552 103.332 9.912C102.708 9.272 101.852 8.952 100.764 8.952C99.6919 8.952 98.7959 9.304 98.0759 10.008Z" fill="#C9E4CA"/>
</svg>
