<?xml version="1.0" standalone="no"?>
<!DOCTYPE svg PUBLIC "-//W3C//DTD SVG 20010904//EN"
 "http://www.w3.org/TR/2001/REC-SVG-20010904/DTD/svg10.dtd">
<svg version="1.0" xmlns="http://www.w3.org/2000/svg"
 width="230.000000pt" height="65.000000pt" viewBox="0 0 230.000000 65.000000"
 preserveAspectRatio="xMidYMid meet">

<g transform="translate(0.000000,65.000000) scale(0.100000,-0.100000)"
fill="#000000" stroke="none">
<path d="M659 465 c-5 -4 -39 -12 -61 -14 -5 -1 -8 -5 -8 -10 0 -5 9 -7 20 -4
19 5 20 2 14 -38 -6 -40 -5 -43 10 -29 8 9 17 31 19 50 4 35 5 35 63 41 l59 6
-56 1 c-31 1 -58 0 -60 -3z"/>
<path d="M2057 458 c-2 -7 -1 -22 4 -33 6 -16 8 -14 8 13 1 33 -4 41 -12 20z"/>
<path d="M785 448 c3 -8 -3 -25 -14 -39 -23 -30 -117 -83 -131 -74 -5 3 -10 1
-10 -5 0 -24 32 -20 89 10 62 33 95 69 89 97 -2 9 -9 18 -16 21 -7 2 -10 -2
-7 -10z"/>
<path d="M1035 450 c-32 -12 -47 -36 -43 -67 2 -23 13 -33 65 -58 35 -16 61
-34 60 -39 -7 -22 -58 -49 -102 -54 -37 -4 -44 -7 -30 -14 27 -16 99 0 135 30
46 39 36 66 -34 86 -93 27 -110 75 -34 98 34 10 45 9 69 -4 31 -18 49 -7 29
17 -14 16 -81 19 -115 5z"/>
<path d="M196 441 c-8 -13 23 -23 47 -15 16 5 17 8 6 15 -18 11 -46 11 -53 0z"/>
<path d="M280 440 c-13 -9 -13 -10 0 -9 8 1 26 5 40 9 l25 8 -25 1 c-14 0 -32
-4 -40 -9z"/>
<path d="M496 433 c-18 -57 -25 -205 -10 -210 8 -3 14 32 19 107 7 107 3 143
-9 103z"/>
<path d="M310 348 c-61 -67 -68 -91 -30 -96 19 -2 22 -1 10 7 -13 9 -12 14 4
43 10 18 32 48 49 65 17 18 29 35 26 37 -2 3 -29 -23 -59 -56z"/>
<path d="M1244 363 c-20 -21 -40 -48 -45 -61 -33 -84 29 -83 114 1 10 10 19
34 20 55 2 34 0 37 -26 40 -22 3 -36 -5 -63 -35z m76 -4 c0 -34 -18 -58 -61
-79 -34 -18 -40 -19 -45 -5 -4 8 2 27 11 43 37 57 95 83 95 41z"/>
<path d="M1975 378 c-11 -6 -35 -26 -54 -44 -19 -18 -47 -38 -63 -45 -25 -10
-31 -9 -49 10 l-20 22 -29 -31 c-36 -38 -57 -38 -65 -1 l-6 29 -42 -18 c-37
-17 -43 -17 -58 -4 -25 22 -33 1 -10 -27 l18 -23 37 22 36 21 0 -22 c0 -53 34
-54 88 -4 17 17 32 26 32 19 0 -25 36 -32 74 -13 l36 19 0 -28 c0 -16 4 -32
10 -35 14 -9 79 24 91 46 8 16 3 15 -27 -6 -36 -25 -54 -25 -54 -1 0 23 60
107 82 116 13 5 16 9 8 9 -8 0 -24 -5 -35 -11z"/>
<path d="M2042 340 c0 -14 2 -19 5 -12 2 6 2 18 0 25 -3 6 -5 1 -5 -13z"/>
<path d="M1438 314 c-12 -11 -9 -69 3 -81 19 -19 69 9 91 51 10 18 8 18 -19
-2 -46 -32 -57 -31 -63 6 -3 19 -8 30 -12 26z"/>
<path d="M610 270 c0 -19 3 -21 12 -12 9 9 9 15 0 24 -9 9 -12 7 -12 -12z"/>
<path d="M1369 273 c-13 -16 -12 -17 4 -4 16 13 21 21 13 21 -2 0 -10 -8 -17
-17z"/>
<path d="M400 270 c0 -5 7 -10 15 -10 8 0 15 5 15 10 0 6 -7 10 -15 10 -8 0
-15 -4 -15 -10z"/>
<path d="M323 263 c9 -2 23 -2 30 0 6 3 -1 5 -18 5 -16 0 -22 -2 -12 -5z"/>
<path d="M1277 217 c-28 -70 -18 -91 19 -39 32 43 32 46 15 64 -15 15 -18 14
-34 -25z"/>
<path d="M2050 251 c0 -6 5 -13 10 -16 6 -3 10 1 10 9 0 9 -4 16 -10 16 -5 0
-10 -4 -10 -9z"/>
</g>
</svg>
